<!--?xml version="1.0" standalone="no"?-->
              <svg id="sw-js-blob-svg" viewBox="0 0 100 100" xmlns="http://www.w3.org/2000/svg" version="1.1">
                    <defs> 
                        <linearGradient id="sw-gradient" x1="0" x2="1" y1="1" y2="0">
                            <stop id="stop1" stop-color="rgba(45.714, 42.9, 41.568, 1)" offset="0%"></stop>
                            <stop id="stop2" stop-color="rgba(189.151, 170.19, 138.893, 1)" offset="100%"></stop>
                        </linearGradient>
                    </defs>
                <path fill="none" d="M22.9,-27.7C28.1,-23,29.5,-14.2,31.6,-5.2C33.7,3.9,36.4,13.2,33.5,20.4C30.6,27.5,22.1,32.5,13.4,34.9C4.7,37.2,-4.3,36.9,-13.5,34.7C-22.7,32.4,-32.2,28.2,-35.9,21C-39.7,13.9,-37.8,3.8,-35.9,-6.2C-34.1,-16.3,-32.2,-26.2,-26.2,-30.8C-20.2,-35.4,-10.1,-34.6,-0.6,-33.9C8.9,-33.2,17.8,-32.5,22.9,-27.7Z" width="100%" height="100%" transform="translate(50 50)" stroke-width="1" style="transition: all 0.3s ease 0s;" stroke="url(#sw-gradient)"></path>
              </svg>