<?xml version="1.0" encoding="UTF-8" standalone="no"?>
<!-- Created with Inkscape (http://www.inkscape.org/) -->

<svg
   xmlns:osb="http://www.openswatchbook.org/uri/2009/osb"
   xmlns:dc="http://purl.org/dc/elements/1.1/"
   xmlns:cc="http://creativecommons.org/ns#"
   xmlns:rdf="http://www.w3.org/1999/02/22-rdf-syntax-ns#"
   xmlns:svg="http://www.w3.org/2000/svg"
   xmlns="http://www.w3.org/2000/svg"
   xmlns:sodipodi="http://sodipodi.sourceforge.net/DTD/sodipodi-0.dtd"
   xmlns:inkscape="http://www.inkscape.org/namespaces/inkscape"
   width="88.145523mm"
   height="19.913513mm"
   viewBox="0 0 88.145523 19.913513"
   version="1.1"
   id="svg8"
   inkscape:version="0.92.4 (5da689c313, 2019-01-14)"
   sodipodi:docname="title.svg">
  <defs
     id="defs2">
    <linearGradient
       id="linearGradient886"
       osb:paint="solid">
      <stop
         style="stop-color:#000000;stop-opacity:1;"
         offset="0"
         id="stop884" />
    </linearGradient>
  </defs>
  <sodipodi:namedview
     id="base"
     pagecolor="#ffffff"
     bordercolor="#666666"
     borderopacity="1.0"
     inkscape:pageopacity="0.0"
     inkscape:pageshadow="2"
     inkscape:zoom="1.4142136"
     inkscape:cx="168.45645"
     inkscape:cy="-59.563746"
     inkscape:document-units="mm"
     inkscape:current-layer="flowRoot815"
     showgrid="false"
     showborder="true"
     inkscape:window-width="2560"
     inkscape:window-height="1375"
     inkscape:window-x="1680"
     inkscape:window-y="0"
     inkscape:window-maximized="1" />
  <metadata
     id="metadata5">
    <rdf:RDF>
      <cc:Work
         rdf:about="">
        <dc:format>image/svg+xml</dc:format>
        <dc:type
           rdf:resource="http://purl.org/dc/dcmitype/StillImage" />
        <dc:title></dc:title>
      </cc:Work>
    </rdf:RDF>
  </metadata>
  <g
     inkscape:label="Layer 1"
     inkscape:groupmode="layer"
     id="layer1"
     transform="translate(-21.353218,-92.27137)">
    <g
       aria-label="QUALYN"
       transform="scale(0.26458333)"
       style="font-style:normal;font-variant:normal;font-weight:normal;font-stretch:normal;font-size:85.33333588px;line-height:1.25;font-family:'Cormorant Garamond';-inkscape-font-specification:'Cormorant Garamond, Normal';font-variant-ligatures:normal;font-variant-caps:normal;font-variant-numeric:normal;font-feature-settings:normal;text-align:start;letter-spacing:0px;word-spacing:0px;writing-mode:lr-tb;text-anchor:start;fill:#000000;fill-opacity:1;stroke:none"
       id="flowRoot815">
      <path
         style="font-style:normal;font-variant:normal;font-weight:normal;font-stretch:normal;font-size:85.33333588px;font-family:'Cormorant Garamond';-inkscape-font-specification:'Cormorant Garamond, Normal';font-variant-ligatures:normal;font-variant-caps:normal;font-variant-numeric:normal;font-feature-settings:normal;text-align:start;writing-mode:lr-tb;text-anchor:start;fill:#000000;fill-opacity:1"
         d="m 227.375,348.74219 c -0.28445,0 -0.48388,0.0852 -0.59766,0.25586 l -18.00586,42.49609 c -1.19466,2.84444 -2.30412,5.03431 -3.32812,6.57031 -0.96711,1.47912 -2.02042,2.53047 -3.1582,3.15625 -1.08089,0.56889 -2.41688,0.85352 -4.00977,0.85352 -0.28444,0 -0.42578,0.17038 -0.42578,0.51172 0,0.34133 0.14134,0.51367 0.42578,0.51367 1.13778,0 2.56091,-0.0581 4.26758,-0.17188 1.93422,-0.11377 3.64003,-0.16992 5.11914,-0.16992 1.59289,0 3.47103,0.0562 5.63281,0.16992 1.93422,0.11378 3.41155,0.17188 4.43555,0.17188 0.28445,0 0.42773,-0.17234 0.42773,-0.51367 0,-0.34134 -0.14328,-0.51172 -0.42773,-0.51172 -2.78755,0 -4.89223,-0.39691 -6.31445,-1.19336 -1.36534,-0.85333 -2.04688,-2.16223 -2.04688,-3.92578 0,-1.19467 0.39692,-2.75914 1.19336,-4.69336 l 5.37695,-12.62891 h 20.3086 l 7.5957,16.12696 c 0.73956,1.64978 1.10937,2.87347 1.10937,3.66992 0,0.9671 -0.48405,1.64865 -1.45117,2.04687 -0.96711,0.39822 -2.50253,0.59766 -4.60742,0.59766 -0.22755,0 -0.3418,0.17038 -0.3418,0.51172 0,0.34133 0.11425,0.51367 0.3418,0.51367 0.96711,0 2.3612,-0.0581 4.18164,-0.17188 1.93423,-0.11377 3.52579,-0.16992 4.77735,-0.16992 1.024,0 2.67366,0.0562 4.94921,0.16992 2.27556,0.11378 3.95427,0.17188 5.03516,0.17188 0.22755,0 0.3418,-0.17234 0.3418,-0.51367 0,-0.34134 -0.11425,-0.51172 -0.3418,-0.51172 -1.87733,0 -3.49795,-0.71059 -4.86328,-2.13281 -1.36533,-1.47912 -3.015,-4.32343 -4.94922,-8.53321 l -20.13867,-42.41015 c -0.0569,-0.17067 -0.22727,-0.25586 -0.51172,-0.25586 z m -116.63281,0.084 c -4.83556,0 -9.58511,1.05332 -14.250002,3.15821 -4.608,2.10489 -8.391387,5.26288 -11.34961,9.47265 -2.958222,4.15289 -4.4375,9.15803 -4.4375,15.01758 0,4.72178 0.995217,9.10152 2.986328,13.14062 2.048,4.03912 4.921363,7.3404 8.619141,9.90039 3.697777,2.56 7.963273,4.06638 12.798833,4.52149 25.59999,13.312 49.52207,19.96875 71.76562,19.96875 5.74578,0 10.38305,-0.34272 13.91016,-1.02539 3.52711,-0.68267 6.68315,-1.47845 9.4707,-2.38867 0.17064,-0.0569 0.19971,-0.25633 0.0859,-0.59766 -0.11378,-0.28442 -0.22802,-0.39671 -0.3418,-0.33984 -4.608,1.42222 -10.83683,2.13281 -18.6875,2.13281 -6.94044,0 -14.53431,-0.85388 -22.7832,-2.56055 -8.24889,-1.70666 -16.18548,-3.98172 -23.8086,-6.82617 -7.56622,-2.84444 -13.93834,-5.94433 -19.11523,-9.30078 4.15289,-1.024 7.90918,-2.846 11.26562,-5.46289 3.35644,-2.67378 6.00132,-5.88791 7.93555,-9.64258 1.93422,-3.75467 2.90039,-7.79363 2.90039,-12.11719 0,-4.66489 -1.10946,-9.07367 -3.32812,-13.22656 -2.16178,-4.15289 -5.29072,-7.48126 -9.38672,-9.98437 -4.096,-2.56 -8.84556,-3.83985 -14.25,-3.83985 z m 33.58984,0.93945 c -0.11378,10e-6 -0.17187,0.17039 -0.17187,0.51172 0,0.34134 0.0581,0.51172 0.17187,0.51172 2.16178,0 3.72625,0.17039 4.69336,0.51172 1.024,0.28444 1.70554,0.82465 2.04688,1.6211 0.34133,0.79644 0.51171,2.04919 0.51171,3.75585 v 27.30665 c 0,4.09599 0.85388,7.67995 2.56055,10.75195 1.76356,3.01511 4.21096,5.34827 7.33985,6.99805 3.18577,1.64977 6.88202,2.4746 11.09179,2.4746 6.144,0 11.03684,-1.822 14.67774,-5.46289 3.64088,-3.69778 5.46093,-8.81715 5.46093,-15.35937 v -24.23438 c 0,-5.5751 2.27702,-8.36328 6.82813,-8.36328 0.11378,0 0.16992,-0.17038 0.16992,-0.51172 0,-0.34133 -0.0561,-0.51172 -0.16992,-0.51172 l -3.58399,0.0859 c -1.82044,0.11378 -3.21452,0.16992 -4.18164,0.16992 -1.19466,0 -2.81723,-0.0561 -4.86523,-0.16992 l -3.66797,-0.0859 c -0.17067,10e-6 -0.25586,0.17039 -0.25586,0.51172 0,0.34134 0.0852,0.51172 0.25586,0.51172 4.94933,0 7.42383,2.78818 7.42383,8.36328 v 24.32032 c 0,5.68889 -1.42313,10.15381 -4.26758,13.39648 -2.84444,3.18577 -6.82531,4.7793 -11.94531,4.7793 -5.46134,0 -9.72878,-1.76391 -12.80078,-5.29102 -3.01512,-3.584 -4.52344,-8.70337 -4.52344,-15.35937 v -24.15039 c 0,-1.70667 0.17038,-2.95747 0.51172,-3.75391 0.34133,-0.85333 1.02483,-1.45164 2.04883,-1.79297 1.024,-0.34133 2.58847,-0.51172 4.69336,-0.51172 0.17066,0 0.25585,-0.17038 0.25585,-0.51172 0,-0.34133 -0.0852,-0.51172 -0.25585,-0.51172 l -4.09571,0.0859 c -2.38933,0.11378 -4.37977,0.16992 -5.97265,0.16992 -1.47912,0 -3.4134,-0.0561 -5.80274,-0.16992 z m 116.67774,0 c -0.11378,0 -0.16993,0.17039 -0.16993,0.51172 0,0.34134 0.0562,0.51172 0.16993,0.51172 2.16178,0 3.72624,0.17039 4.69335,0.51172 1.024,0.28444 1.7075,0.82465 2.04883,1.6211 0.34134,0.79644 0.51172,2.04919 0.51172,3.75585 v 39.50977 c 0,1.70667 -0.17038,2.98651 -0.51172,3.83984 -0.34133,0.79645 -1.02483,1.33666 -2.04883,1.6211 -0.96711,0.28444 -2.53157,0.42578 -4.69335,0.42578 -0.11378,0 -0.16993,0.17038 -0.16993,0.51172 0,0.34133 0.0562,0.51367 0.16993,0.51367 h 39.42382 c 0.512,0 0.85473,-0.0872 1.02539,-0.25781 0.17067,-0.22756 0.25586,-0.56833 0.25586,-1.02344 0,-3.072 0.25558,-6.96767 0.76758,-11.68945 0,-0.17067 -0.17038,-0.25586 -0.51172,-0.25586 -0.28444,-0.0569 -0.42773,-7.5e-4 -0.42773,0.16992 -0.62578,3.52711 -1.90563,6.28624 -3.83985,8.27734 -1.93421,1.99112 -4.52295,2.98633 -7.76562,2.98633 h -9.30078 c -2.048,0 -3.52728,-0.11424 -4.4375,-0.3418 -0.91023,-0.28444 -1.53562,-0.7956 -1.87695,-1.53515 -0.34134,-0.73956 -0.51172,-1.93421 -0.51172,-3.58399 v -39.08203 c 0,-1.70666 0.17038,-2.95941 0.51172,-3.75586 0.39822,-0.85333 1.07976,-1.42259 2.04687,-1.70703 1.024,-0.34133 2.58847,-0.51172 4.69336,-0.51172 0.17067,0 0.25781,-0.17038 0.25781,-0.51172 0,-0.34133 -0.0871,-0.51172 -0.25781,-0.51172 l -4.0957,0.0859 c -2.38934,0.11378 -4.37977,0.16992 -5.97266,0.16992 -1.47911,0 -3.4134,-0.0561 -5.80273,-0.16992 z m 40.42773,0 c -0.17067,10e-6 -0.25586,0.17039 -0.25586,0.51172 0,0.34134 0.0852,0.51172 0.25586,0.51172 1.87733,0 3.52699,0.48407 4.94922,1.45117 1.42222,0.96712 2.93055,2.70197 4.52344,5.20508 l 14.16601,20.73633 v 18.00586 c 0,1.70667 -0.19943,2.98651 -0.59765,3.83984 -0.34134,0.79645 -1.02483,1.33666 -2.04883,1.6211 -0.96711,0.28444 -2.53158,0.42578 -4.69336,0.42578 -0.17067,0 -0.25586,0.17038 -0.25586,0.51172 0,0.34133 0.0852,0.51367 0.25586,0.51367 1.76355,0 3.15764,-0.0291 4.18164,-0.0859 l 5.88867,-0.0859 5.97266,0.0859 c 0.96711,0.0569 2.33215,0.0859 4.0957,0.0859 0.17067,0 0.25586,-0.17234 0.25586,-0.51367 0,-0.34134 -0.0852,-0.51172 -0.25586,-0.51172 -2.16178,0 -3.75334,-0.14134 -4.77734,-0.42578 -0.96711,-0.28444 -1.62156,-0.82465 -1.96289,-1.6211 -0.34134,-0.79644 -0.51172,-2.07629 -0.51172,-3.83984 v -19.37109 l 11.43359,-17.57813 c 1.64978,-2.61689 3.52793,-4.66542 5.63281,-6.14453 2.1049,-1.536 4.18052,-2.30469 6.22852,-2.30469 0.11377,0 0.16992,-0.17038 0.16992,-0.51172 0,-0.34133 -0.0562,-0.51172 -0.16992,-0.51172 l -3.15625,0.0859 c -1.36533,0.11378 -2.53289,0.16992 -3.5,0.16992 -1.82045,0 -3.81088,-0.0561 -5.97266,-0.16992 l -4.01172,-0.0859 c -0.11378,10e-6 -0.16992,0.17039 -0.16992,0.51172 0,0.34134 0.0561,0.51172 0.16992,0.51172 3.072,0 4.60938,1.02427 4.60938,3.07227 0,1.36533 -0.62735,3.04405 -1.87891,5.03515 l -10.41015,15.95704 -13.73828,-20.13868 c -0.5689,-0.79644 -0.85352,-1.50704 -0.85352,-2.13281 0,-1.19467 1.47927,-1.79297 4.4375,-1.79297 0.11377,0 0.16992,-0.17038 0.16992,-0.51172 0,-0.34133 -0.0562,-0.51172 -0.16992,-0.51172 l -4.60742,0.0859 c -2.95823,0.11378 -5.40563,0.16992 -7.33985,0.16992 l -2.98632,-0.0859 c -1.36534,-0.11378 -2.3896,-0.16993 -3.07227,-0.16993 z m 55.58398,0 c -0.17066,10e-6 -0.25585,0.17039 -0.25586,0.51172 0,0.34134 0.0852,0.51172 0.25586,0.51172 2.27556,0 4.52353,1.02427 6.74219,3.07227 v 39.93555 c 0,2.95821 -0.51311,5.09194 -1.53711,6.40039 -1.024,1.25155 -2.75885,1.87695 -5.20508,1.87695 -0.11377,0 -0.16992,0.17038 -0.16992,0.51172 0,0.34133 0.0562,0.51367 0.16992,0.51367 1.536,0 2.70356,-0.0291 3.5,-0.0859 l 4.35157,-0.0859 4.26562,0.0859 c 0.73956,0.0569 1.82192,0.0859 3.24414,0.0859 0.17067,0 0.25586,-0.17234 0.25586,-0.51367 0,-0.34134 -0.0852,-0.51172 -0.25586,-0.51172 -2.33244,0 -4.0402,-0.6254 -5.12109,-1.87695 -1.024,-1.30845 -1.53516,-3.44218 -1.53516,-6.40039 v -37.88672 l 0.76758,0.85351 39.25391,47.5293 c 0.11378,0.11373 0.31321,0.1428 0.59765,0.0859 0.28445,-0.0569 0.42578,-0.14208 0.42578,-0.25586 v -44.97071 c 0,-2.95822 0.54021,-5.09194 1.6211,-6.40039 1.08089,-1.30844 2.81574,-1.96289 5.20508,-1.96289 0.17066,0 0.25586,-0.17038 0.25586,-0.51172 0,-0.34133 -0.0852,-0.51172 -0.25586,-0.51172 l -3.49805,0.0859 c -1.82045,0.11378 -3.24358,0.16992 -4.26758,0.16992 -1.08089,0 -2.47302,-0.0561 -4.17969,-0.16992 l -3.32812,-0.0859 c -0.11378,0 -0.17188,0.17039 -0.17188,0.51172 0,0.34134 0.0581,0.51172 0.17188,0.51172 2.33245,0 3.98211,0.65445 4.94922,1.96289 1.024,1.30845 1.53515,3.44217 1.53515,6.40039 v 35.41407 L 371.95508,354.2031 c -0.68267,-0.85333 -1.36421,-1.7924 -2.04688,-2.8164 -0.45511,-0.68267 -0.79783,-1.10863 -1.02539,-1.2793 -0.17066,-0.22755 -0.48238,-0.3418 -0.9375,-0.3418 -0.45511,10e-6 -1.08051,0.0291 -1.87695,0.0859 -0.79645,0.0569 -1.82071,0.084 -3.07227,0.084 -1.19466,0 -2.13374,-0.0271 -2.8164,-0.084 z m -249.86328,1.02344 c 4.83556,0 9.04491,1.16561 12.62891,3.49805 3.64089,2.33245 6.4581,5.57563 8.44922,9.72851 1.99111,4.1529 2.98633,8.9044 2.98633,14.25196 0,5.00622 -0.91003,9.32981 -2.73047,12.9707 -1.76356,3.64089 -4.21095,6.40001 -7.33985,8.27734 -3.072,1.87734 -6.54171,2.81446 -10.41015,2.81446 -4.55112,0 -8.61913,-1.25079 -12.203128,-3.75391 -3.583999,-2.56 -6.370216,-6.02971 -8.361328,-10.41015 -1.991111,-4.43734 -2.988281,-9.33018 -2.988281,-14.67774 0,-7.05422 1.763904,-12.60151 5.291016,-16.64062 3.527111,-4.03911 8.419951,-6.0586 14.677731,-6.0586 z m 118.33789,6.0586 9.98438,21.07812 h -18.85742 z"
         id="path870"
         inkscape:connector-curvature="0" />
    </g>
  </g>
</svg>
